<svg width="24" height="24" viewBox="0 0 24 24" fill="none" xmlns="http://www.w3.org/2000/svg">
<g clip-path="url(#clip0_6135_51119)">
<path fill-rule="evenodd" clip-rule="evenodd" d="M9.96499 2.80898C9.7658 2.66331 9.53396 2.56864 9.28973 2.53326C9.04551 2.49787 8.79634 2.52284 8.56399 2.60598C7.4776 3.00396 6.4686 3.58763 5.58199 4.33098C5.39414 4.49046 5.24818 4.6935 5.15684 4.92237C5.06551 5.15123 5.03157 5.39898 5.05799 5.64398C5.13299 6.39698 4.99999 7.12398 4.63799 7.74998C4.27699 8.37698 3.71299 8.85598 3.02299 9.16698C2.79734 9.26693 2.5996 9.42063 2.44707 9.61465C2.29454 9.80868 2.19185 10.0371 2.14799 10.28C1.95047 11.4181 1.95047 12.5818 2.14799 13.72C2.24099 14.257 2.60799 14.646 3.02299 14.834C3.71299 15.144 4.27699 15.624 4.63899 16.25C4.99999 16.877 5.13299 17.603 5.05799 18.356C5.01299 18.808 5.16499 19.32 5.58199 19.669C6.46859 20.4123 7.47759 20.996 8.56399 21.394C8.79618 21.477 9.04519 21.502 9.28923 21.4666C9.53328 21.4312 9.76495 21.3366 9.96399 21.191C10.579 20.749 11.276 20.5 12 20.5C12.724 20.5 13.42 20.749 14.035 21.191C14.405 21.457 14.925 21.581 15.436 21.394C16.5224 20.996 17.5314 20.4123 18.418 19.669C18.835 19.32 18.988 18.809 18.942 18.356C18.867 17.603 18.999 16.876 19.362 16.25C19.723 15.623 20.287 15.145 20.977 14.834C21.391 14.646 21.759 14.257 21.852 13.72C22.0495 12.5818 22.0495 11.4181 21.852 10.28C21.8081 10.0371 21.7054 9.80868 21.5529 9.61465C21.4004 9.42063 21.2026 9.26693 20.977 9.16698C20.287 8.85598 19.723 8.37698 19.361 7.74998C18.999 7.12398 18.867 6.39698 18.942 5.64398C18.9683 5.39898 18.9343 5.15127 18.843 4.92242C18.7517 4.69356 18.6058 4.49052 18.418 4.33098C17.5314 3.58763 16.5224 3.00396 15.436 2.60598C15.2038 2.52301 14.9548 2.49813 14.7108 2.53352C14.4667 2.5689 14.2351 2.66347 14.036 2.80898C13.42 3.24998 12.723 3.49998 12 3.49998C11.277 3.49998 10.58 3.25098 9.96499 2.80898ZM8.99999 12C8.99999 11.2043 9.31606 10.4413 9.87867 9.87866C10.4413 9.31605 11.2043 8.99998 12 8.99998C12.7956 8.99998 13.5587 9.31605 14.1213 9.87866C14.6839 10.4413 15 11.2043 15 12C15 12.7956 14.6839 13.5587 14.1213 14.1213C13.5587 14.6839 12.7956 15 12 15C11.2043 15 10.4413 14.6839 9.87867 14.1213C9.31606 13.5587 8.99999 12.7956 8.99999 12Z" fill="#578CFF"/>
</g>
<defs>
<clipPath id="clip0_6135_51119">
<rect width="24" height="24" fill="white"/>
</clipPath>
</defs>
</svg>
